<?xml version="1.0" encoding="UTF-8"?>
<svg xmlns="http://www.w3.org/2000/svg" xmlns:xlink="http://www.w3.org/1999/xlink" width="58px" height="58px" viewBox="0 0 58 57" version="1.1">
<g id="surface1">
<rect x="0" y="0" width="58" height="57" style="fill:rgb(100%,100%,100%);fill-opacity:1;stroke:none;"/>
<path style=" stroke:none;fill-rule:evenodd;fill:rgb(19.215686%,45.490196%,72.54902%);fill-opacity:1;" d="M 24.183594 30.082031 C 24.183594 30.082031 22.796875 30.875 25.171875 31.140625 C 28.046875 31.464844 29.515625 31.417969 32.679688 30.828125 C 32.679688 30.828125 33.515625 31.34375 34.679688 31.785156 C 27.578125 34.777344 18.605469 31.613281 24.183594 30.082031 Z M 23.316406 26.179688 C 23.316406 26.179688 21.761719 27.308594 24.136719 27.550781 C 27.207031 27.863281 29.632812 27.890625 33.828125 27.09375 C 33.828125 27.09375 34.40625 27.671875 35.320312 27.988281 C 26.734375 30.457031 17.171875 28.183594 23.316406 26.179688 Z M 23.316406 26.179688 "/>
<path style=" stroke:none;fill-rule:evenodd;fill:rgb(79.215686%,19.215686%,19.607843%);fill-opacity:1;" d="M 30.628906 19.558594 C 32.382812 21.539062 30.171875 23.320312 30.171875 23.320312 C 30.171875 23.320312 34.613281 21.066406 32.574219 18.242188 C 30.667969 15.613281 29.207031 14.304688 37.117188 9.796875 C 37.117188 9.796875 24.699219 12.84375 30.628906 19.558594 Z M 30.628906 19.558594 "/>
<path style=" stroke:none;fill-rule:evenodd;fill:rgb(19.215686%,45.490196%,72.54902%);fill-opacity:1;" d="M 40.023438 32.96875 C 40.023438 32.96875 41.046875 33.800781 38.894531 34.441406 C 34.796875 35.664062 21.832031 36.03125 18.234375 34.492188 C 16.941406 33.9375 19.367188 33.171875 20.128906 33.007812 C 20.925781 32.839844 21.378906 32.871094 21.378906 32.871094 C 19.941406 31.875 12.078125 34.824219 17.386719 35.671875 C 31.863281 37.980469 43.777344 34.632812 40.023438 32.96875 Z M 24.851562 22.136719 C 24.851562 22.136719 18.257812 23.675781 22.515625 24.234375 C 24.316406 24.472656 27.898438 24.417969 31.238281 24.140625 C 33.964844 23.917969 36.703125 23.433594 36.703125 23.433594 C 36.703125 23.433594 35.742188 23.839844 35.046875 24.308594 C 28.351562 26.039062 15.417969 25.230469 19.140625 23.460938 C 22.289062 21.964844 24.851562 22.136719 24.851562 22.136719 Z M 36.675781 28.632812 C 43.480469 25.15625 40.335938 21.816406 38.140625 22.269531 C 37.601562 22.378906 37.359375 22.472656 37.359375 22.472656 C 37.359375 22.472656 37.5625 22.164062 37.941406 22.03125 C 42.289062 20.53125 45.628906 26.460938 36.542969 28.808594 C 36.539062 28.808594 36.644531 28.714844 36.675781 28.632812 Z M 36.675781 28.632812 "/>
<path style=" stroke:none;fill-rule:evenodd;fill:rgb(79.215686%,19.215686%,19.607843%);fill-opacity:1;" d="M 32.574219 2.515625 C 32.574219 2.515625 36.34375 6.21875 29 11.917969 C 23.109375 16.488281 27.65625 19.09375 28.996094 22.070312 C 25.558594 19.023438 23.039062 16.339844 24.730469 13.84375 C 27.210938 10.175781 34.09375 8.398438 32.574219 2.515625 Z M 32.574219 2.515625 "/>
<path style=" stroke:none;fill-rule:evenodd;fill:rgb(19.215686%,45.490196%,72.54902%);fill-opacity:1;" d="M 25.519531 38.050781 C 32.050781 38.460938 42.082031 37.824219 42.320312 34.785156 C 42.320312 34.785156 41.863281 35.9375 36.921875 36.847656 C 31.347656 37.878906 24.46875 37.761719 20.390625 37.097656 C 20.390625 37.097656 21.226562 37.777344 25.519531 38.050781 Z M 25.519531 38.050781 "/>
<path style=" stroke:none;fill-rule:evenodd;fill:rgb(79.215686%,19.215686%,19.607843%);fill-opacity:1;" d="M 42.019531 43.496094 L 41.820312 43.496094 L 41.820312 43.386719 L 42.355469 43.386719 L 42.355469 43.496094 L 42.15625 43.496094 L 42.15625 44.042969 L 42.019531 44.042969 Z M 43.089844 43.523438 L 43.085938 43.523438 L 42.886719 44.042969 L 42.796875 44.042969 L 42.601562 43.523438 L 42.597656 43.523438 L 42.597656 44.042969 L 42.46875 44.042969 L 42.46875 43.386719 L 42.660156 43.386719 L 42.84375 43.851562 L 43.023438 43.386719 L 43.214844 43.386719 L 43.214844 44.042969 L 43.089844 44.042969 Z M 24.449219 49.65625 C 23.832031 50.179688 23.183594 50.476562 22.597656 50.476562 C 21.765625 50.476562 21.3125 49.984375 21.3125 49.195312 C 21.3125 48.34375 21.796875 47.722656 23.734375 47.722656 L 24.449219 47.722656 Z M 26.148438 51.539062 L 26.148438 45.707031 C 26.148438 44.214844 25.285156 43.230469 23.199219 43.230469 C 21.980469 43.230469 20.914062 43.527344 20.046875 43.902344 L 20.296875 44.9375 C 20.980469 44.6875 21.863281 44.460938 22.730469 44.460938 C 23.933594 44.460938 24.449219 44.9375 24.449219 45.917969 L 24.449219 46.65625 L 23.847656 46.65625 C 20.929688 46.65625 19.613281 47.769531 19.613281 49.445312 C 19.613281 50.886719 20.480469 51.707031 22.113281 51.707031 C 23.164062 51.707031 23.949219 51.28125 24.683594 50.65625 L 24.816406 51.539062 Z M 31.824219 51.539062 L 29.703125 51.539062 L 27.152344 43.378906 L 29.003906 43.378906 L 30.585938 48.394531 L 30.941406 49.902344 C 31.738281 47.722656 32.304688 45.507812 32.589844 43.378906 L 34.390625 43.378906 C 33.910156 46.066406 33.039062 49.015625 31.824219 51.539062 Z M 39.960938 49.65625 C 39.339844 50.179688 38.691406 50.476562 38.105469 50.476562 C 37.273438 50.476562 36.824219 49.984375 36.824219 49.195312 C 36.824219 48.34375 37.304688 47.722656 39.242188 47.722656 L 39.960938 47.722656 Z M 41.660156 51.539062 L 41.660156 45.707031 C 41.660156 44.214844 40.792969 43.230469 38.707031 43.230469 C 37.488281 43.230469 36.421875 43.527344 35.554688 43.902344 L 35.804688 44.9375 C 36.488281 44.6875 37.375 44.460938 38.242188 44.460938 C 39.441406 44.460938 39.957031 44.9375 39.957031 45.917969 L 39.957031 46.65625 L 39.359375 46.65625 C 36.4375 46.65625 35.121094 47.769531 35.121094 49.445312 C 35.121094 50.886719 35.988281 51.707031 37.621094 51.707031 C 38.675781 51.707031 39.457031 51.28125 40.191406 50.65625 L 40.324219 51.539062 Z M 17.746094 52.929688 C 17.261719 53.625 16.480469 54.175781 15.625 54.484375 L 14.785156 53.511719 C 15.4375 53.183594 15.996094 52.652344 16.253906 52.160156 C 16.480469 51.71875 16.574219 51.152344 16.574219 49.796875 L 16.574219 40.476562 L 18.378906 40.476562 L 18.378906 49.667969 C 18.378906 51.480469 18.234375 52.214844 17.746094 52.929688 Z M 17.746094 52.929688 "/>
</g>
</svg>
