<?xml version="1.0" encoding="UTF-8"?>
<svg xmlns="http://www.w3.org/2000/svg" xmlns:xlink="http://www.w3.org/1999/xlink" width="58px" height="58px" viewBox="0 0 58 57" version="1.1">
<g id="surface1">
<path style=" stroke:none;fill-rule:nonzero;fill:rgb(36.470588%,52.941176%,63.137255%);fill-opacity:1;" d="M 17.753906 40.652344 L 16.183594 40.652344 C 16.128906 38.050781 15.976562 35.601562 15.726562 33.304688 L 15.710938 33.304688 L 13.320312 40.652344 L 12.125 40.652344 L 9.75 33.304688 L 9.734375 33.304688 C 9.558594 35.507812 9.449219 37.957031 9.402344 40.652344 L 7.96875 40.652344 C 8.0625 37.375 8.292969 34.300781 8.664062 31.433594 L 10.609375 31.433594 L 12.875 38.207031 L 12.890625 38.207031 L 15.167969 31.433594 L 17.03125 31.433594 C 17.4375 34.792969 17.679688 37.867188 17.753906 40.652344 M 24.5625 33.851562 C 23.925781 37.261719 23.082031 39.738281 22.035156 41.285156 C 21.21875 42.476562 20.324219 43.070312 19.351562 43.070312 C 19.09375 43.070312 18.773438 42.992188 18.394531 42.839844 L 18.394531 42.019531 C 18.578125 42.046875 18.796875 42.058594 19.046875 42.058594 C 19.5 42.058594 19.867188 41.9375 20.144531 41.691406 C 20.476562 41.390625 20.644531 41.054688 20.644531 40.679688 C 20.644531 40.425781 20.515625 39.902344 20.253906 39.109375 L 18.53125 33.851562 L 20.074219 33.851562 L 21.3125 37.785156 C 21.589844 38.675781 21.707031 39.300781 21.660156 39.65625 C 22.335938 37.878906 22.808594 35.945312 23.078125 33.851562 Z M 24.5625 33.851562 "/>
<path style=" stroke:none;fill-rule:nonzero;fill:rgb(97.254902%,59.607843%,11.372549%);fill-opacity:1;" d="M 45.464844 40.652344 L 41.003906 40.652344 L 41.003906 31.433594 L 42.503906 31.433594 L 42.503906 39.519531 L 45.464844 39.519531 Z M 39.835938 40.875 L 38.113281 40.039062 C 38.265625 39.917969 38.410156 39.78125 38.542969 39.628906 C 39.277344 38.78125 39.640625 37.53125 39.640625 35.871094 C 39.640625 32.824219 38.425781 31.296875 35.988281 31.296875 C 34.792969 31.296875 33.859375 31.683594 33.195312 32.457031 C 32.460938 33.304688 32.09375 34.550781 32.09375 36.199219 C 32.09375 37.820312 32.417969 39.011719 33.066406 39.765625 C 33.660156 40.449219 34.554688 40.789062 35.75 40.789062 C 36.199219 40.789062 36.605469 40.734375 36.980469 40.628906 L 39.226562 41.914062 Z M 34.25 38.808594 C 33.871094 38.207031 33.679688 37.242188 33.679688 35.914062 C 33.679688 33.59375 34.398438 32.429688 35.835938 32.429688 C 36.585938 32.429688 37.136719 32.707031 37.488281 33.261719 C 37.867188 33.863281 38.058594 34.820312 38.058594 36.132812 C 38.058594 38.472656 37.339844 39.640625 35.902344 39.640625 C 35.152344 39.644531 34.601562 39.367188 34.25 38.808594 M 31.441406 38.097656 C 31.441406 38.878906 31.148438 39.519531 30.566406 40.023438 C 29.984375 40.523438 29.199219 40.773438 28.21875 40.773438 C 27.300781 40.773438 26.410156 40.488281 25.550781 39.914062 L 25.953125 39.121094 C 26.695312 39.488281 27.367188 39.667969 27.96875 39.667969 C 28.535156 39.667969 28.976562 39.546875 29.296875 39.300781 C 29.617188 39.054688 29.808594 38.710938 29.808594 38.277344 C 29.808594 37.730469 29.417969 37.261719 28.703125 36.867188 C 28.046875 36.515625 26.730469 35.773438 26.730469 35.773438 C 26.019531 35.261719 25.664062 34.714844 25.664062 33.8125 C 25.664062 33.0625 25.929688 32.460938 26.460938 32 C 26.996094 31.539062 27.683594 31.3125 28.527344 31.3125 C 29.394531 31.3125 30.1875 31.539062 30.902344 31.992188 L 30.539062 32.785156 C 29.929688 32.53125 29.328125 32.402344 28.734375 32.402344 C 28.253906 32.402344 27.882812 32.519531 27.625 32.746094 C 27.363281 32.972656 27.203125 33.265625 27.203125 33.621094 C 27.203125 34.164062 27.597656 34.640625 28.332031 35.039062 C 28.996094 35.394531 30.347656 36.148438 30.347656 36.148438 C 31.078125 36.660156 31.441406 37.203125 31.441406 38.097656 "/>
<path style=" stroke:none;fill-rule:nonzero;fill:rgb(36.470588%,52.941176%,63.137255%);fill-opacity:1;" d="M 47.347656 28.34375 C 46.441406 28.324219 45.738281 28.414062 45.148438 28.65625 C 44.980469 28.726562 44.707031 28.726562 44.683594 28.9375 C 44.777344 29.027344 44.789062 29.167969 44.867188 29.292969 C 45.003906 29.515625 45.242188 29.816406 45.457031 29.972656 C 45.695312 30.152344 45.933594 30.328125 46.183594 30.484375 C 46.625 30.753906 47.125 30.90625 47.554688 31.175781 C 47.804688 31.332031 48.050781 31.53125 48.304688 31.699219 C 48.425781 31.789062 48.503906 31.933594 48.664062 31.988281 L 48.664062 31.953125 C 48.585938 31.855469 48.5625 31.710938 48.484375 31.597656 L 48.144531 31.273438 C 47.8125 30.839844 47.40625 30.460938 46.964844 30.152344 C 46.601562 29.90625 45.808594 29.570312 45.660156 29.160156 L 45.636719 29.136719 C 45.886719 29.113281 46.183594 29.027344 46.417969 28.957031 C 46.804688 28.855469 47.15625 28.878906 47.554688 28.78125 C 47.734375 28.734375 47.914062 28.679688 48.097656 28.625 L 48.097656 28.523438 C 47.894531 28.324219 47.746094 28.054688 47.53125 27.867188 C 46.953125 27.375 46.316406 26.898438 45.660156 26.496094 C 45.308594 26.273438 44.855469 26.128906 44.480469 25.941406 C 44.347656 25.871094 44.117188 25.839844 44.039062 25.726562 C 43.835938 25.484375 43.722656 25.160156 43.574219 24.871094 C 43.246094 24.257812 42.929688 23.578125 42.644531 22.929688 C 42.441406 22.496094 42.316406 22.0625 42.066406 21.660156 C 40.898438 19.769531 39.628906 18.621094 37.679688 17.496094 C 37.261719 17.261719 36.761719 17.160156 36.230469 17.039062 L 35.378906 16.996094 C 35.199219 16.917969 35.015625 16.703125 34.859375 16.605469 C 34.210938 16.203125 32.546875 15.335938 32.070312 16.480469 C 31.761719 17.207031 32.523438 17.917969 32.785156 18.285156 C 32.976562 18.542969 33.226562 18.832031 33.359375 19.121094 C 33.441406 19.3125 33.464844 19.511719 33.542969 19.710938 C 33.726562 20.203125 33.894531 20.75 34.132812 21.207031 C 34.257812 21.4375 34.394531 21.683594 34.550781 21.894531 C 34.644531 22.019531 34.800781 22.074219 34.835938 22.273438 C 34.679688 22.496094 34.664062 22.832031 34.574219 23.109375 C 34.167969 24.367188 34.324219 25.925781 34.902344 26.851562 C 35.085938 27.132812 35.515625 27.746094 36.09375 27.507812 C 36.605469 27.308594 36.492188 26.675781 36.636719 26.117188 C 36.671875 25.984375 36.648438 25.894531 36.71875 25.804688 L 36.71875 25.828125 C 36.875 26.140625 37.035156 26.441406 37.183594 26.753906 C 37.535156 27.296875 38.144531 27.867188 38.65625 28.242188 C 38.925781 28.445312 39.144531 28.789062 39.484375 28.914062 L 39.484375 28.878906 L 39.460938 28.878906 C 39.390625 28.78125 39.289062 28.734375 39.199219 28.65625 C 38.996094 28.457031 38.769531 28.210938 38.609375 27.988281 C 38.136719 27.367188 37.714844 26.675781 37.34375 25.960938 C 37.160156 25.617188 37 25.238281 36.855469 24.890625 C 36.785156 24.757812 36.785156 24.558594 36.671875 24.492188 C 36.5 24.734375 36.253906 24.949219 36.128906 25.246094 C 35.914062 25.726562 35.890625 26.316406 35.808594 26.929688 L 35.765625 26.953125 C 35.40625 26.863281 35.277344 26.496094 35.140625 26.183594 C 34.800781 25.394531 34.746094 24.125 35.039062 23.210938 C 35.117188 22.976562 35.460938 22.242188 35.324219 22.019531 C 35.257812 21.804688 35.027344 21.683594 34.90625 21.515625 C 34.757812 21.304688 34.597656 21.039062 34.496094 20.804688 C 34.222656 20.179688 34.085938 19.488281 33.792969 18.867188 C 33.65625 18.574219 33.421875 18.273438 33.226562 18.007812 C 33.011719 17.707031 32.773438 17.496094 32.601562 17.140625 C 32.546875 17.015625 32.46875 16.816406 32.558594 16.683594 C 32.582031 16.59375 32.625 16.558594 32.71875 16.539062 C 32.863281 16.414062 33.285156 16.570312 33.429688 16.636719 C 33.851562 16.804688 34.203125 16.960938 34.554688 17.195312 C 34.710938 17.304688 34.882812 17.519531 35.085938 17.574219 L 35.324219 17.574219 C 35.6875 17.652344 36.09375 17.59375 36.433594 17.695312 C 37.035156 17.886719 37.578125 18.164062 38.066406 18.464844 C 39.550781 19.390625 40.777344 20.703125 41.601562 22.273438 C 41.738281 22.53125 41.796875 22.765625 41.921875 23.03125 C 42.160156 23.578125 42.453125 24.136719 42.691406 24.667969 C 42.929688 25.191406 43.15625 25.726562 43.496094 26.160156 C 43.664062 26.394531 44.347656 26.519531 44.652344 26.640625 C 44.878906 26.742188 45.230469 26.828125 45.433594 26.953125 C 45.820312 27.1875 46.203125 27.453125 46.566406 27.710938 C 46.746094 27.84375 47.316406 28.121094 47.347656 28.34375 M 35.785156 18.664062 C 35.628906 18.664062 35.472656 18.683594 35.324219 18.722656 L 35.324219 18.742188 L 35.34375 18.742188 C 35.4375 18.921875 35.59375 19.046875 35.707031 19.199219 C 35.800781 19.378906 35.878906 19.554688 35.96875 19.734375 L 35.988281 19.710938 C 36.148438 19.601562 36.230469 19.421875 36.230469 19.15625 C 36.160156 19.078125 36.148438 19 36.09375 18.921875 C 36.023438 18.808594 35.878906 18.753906 35.785156 18.664062 "/>
<path style=" stroke:none;fill-rule:nonzero;fill:rgb(97.254902%,59.607843%,11.372549%);fill-opacity:1;" d="M 48.429688 40.652344 L 48.664062 40.652344 L 48.664062 39.523438 L 48.3125 39.523438 L 48.023438 40.292969 L 47.710938 39.523438 L 47.371094 39.523438 L 47.371094 40.652344 L 47.59375 40.652344 L 47.59375 39.792969 L 47.605469 39.792969 L 47.933594 40.652344 L 48.101562 40.652344 L 48.429688 39.792969 Z M 46.535156 40.652344 L 46.785156 40.652344 L 46.785156 39.714844 L 47.109375 39.714844 L 47.109375 39.523438 L 46.199219 39.523438 L 46.199219 39.714844 L 46.535156 39.714844 Z M 46.535156 40.652344 "/>
</g>
</svg>
